<?xml version='1.0' encoding='utf-8'?>
<svg xmlns="http://www.w3.org/2000/svg" enable-background="new 0 0 5000 4418.421" version="1.1" viewBox="0 0 5e3 4418.4"> <g fill="#020202"> <path d="m2512.5 2853.4c33.435 19.838 78.91 33.678 102.2 65.973 10.522 14.591 15.911 31.43 21.645 48.273-17.183-0.56-34.471-2.345-50.104-9.91-41.775-20.214-59.58-63.156-73.743-104.34z"/> <path d="m2489.1 2853.4c-33.435 19.838-78.911 33.678-102.2 65.973-10.522 14.591-15.911 31.43-21.645 48.273 17.183-0.56 34.47-2.345 50.104-9.91 41.774-20.214 59.579-63.156 73.743-104.34z"/> <path d="m2500.8 2864.4c0.05-0.107 0.1-0.215 0.15-0.322 13.663 23.299 27.573 57.422 31.659 83.886 5.178 33.553-10.824 58.822-29.373 84.647-0.829-0.877-1.641-1.752-2.436-2.623-0.794 0.871-1.606 1.746-2.436 2.623-18.549-25.825-34.551-51.094-29.373-84.647 4.086-26.464 17.996-60.587 31.659-83.886 0.051 0.107 0.1 0.215 0.15 0.322z"/> <path d="m2500.8 2493.3c96.106 84.375 88.579 175.89 5.087 270.1 0.252-51.313 3.2-106.51-5.087-156.96-8.288 50.445-5.339 105.65-5.087 156.96-83.492-94.21-91.018-185.72 5.087-270.1z"/> <path d="m3062.8 2574.5c54.004-4.472 117.02 13.49 147.23 57.811 21.532 31.589 16.009 78.033-14.775 97.588-23.443 14.892-59.277 11.714-73.444-12.704-12.025-20.729-6.286-39.74 9.594-49.232l3.093 2.026c-5.003 19.583-4.931 28.256 12.554 43.012 10.626 3.534 18.479 4.701 29.297 0.115 42.274-17.916 30.009-82.13-29.88-98.224-61.362-16.495-119.93 22.305-170.43 51.991-142.82 82.47-246.36 152.54-444.92 118.06l86.875-18.643c212.64-53.977 305.4-175.32 444.81-191.8z"/> <path d="m1938.8 2574.5c-54.005-4.472-117.02 13.49-147.23 57.811-21.532 31.589-16.009 78.033 14.775 97.588 23.443 14.892 59.277 11.714 73.444-12.704 12.025-20.729 6.286-39.74-9.594-49.232l-3.093 2.026c5.003 19.583 4.931 28.256-12.554 43.012-10.626 3.534-18.479 4.701-29.297 0.115-42.274-17.916-30.009-82.13 29.88-98.224 61.362-16.495 119.93 22.305 170.43 51.991 142.83 82.47 246.36 152.54 444.92 118.06l-86.875-18.643c-212.64-53.977-305.4-175.32-444.81-191.8z"/> <path d="m4672.2 2801.2c11.985-2.972 26.699 0.728 36.738 9.005 7.944 6.55 13.112 15.832 17.666 24.897 261.84 14.673 252.49 13.237 273.37 18.18-221.3 19.893-163.72 15.096-250.99 21.426-4.691 0.347-17.583-0.16-21.301 1.581-6.046 2.818-14.108 19.807-22.552 25.078-10.39 6.47-23.003 8.173-34.783 4.861-16.297-4.583-23.49-17.124-31.448-30.85-2021.1-1.835-1684.6-1.648-1942.8-1.46-79.219-0.025-100.73 7.408-172.44-27.34 53.083-14.174-113.11-9.706 2113.5-10.171 1.634 2e-3 9.105-28.783 35.005-35.207z"/> <path d="m329.33 2801.6c-16.371-3.825-34.283 3.176-44.774 17.359-3.726 5.037-6.731 10.576-9.538 16.164-261.84 14.673-252.49 13.237-273.37 18.18 221.3 19.893 163.72 15.096 250.99 21.426 4.691 0.347 17.583-0.16 21.301 1.581 6.046 2.818 14.108 19.807 22.552 25.078 10.39 6.47 23.003 8.173 34.783 4.861 16.297-4.583 23.49-17.124 31.448-30.85 2021.1-1.835 1684.6-1.648 1942.8-1.46 79.219-0.025 100.73 7.408 172.44-27.34-53.084-14.174 113.11-9.706-2113.5-10.171-1.141 1e-3 -9.352-28.812-35.097-34.828z"/> </g> <g fill="#020202"> <path d="m4588.8 430.69c16.218-6.915 37.427-0.631 46.606 14.62 9.955 16.541 3.963 40.649-12.577 50.605-42.92 25.834-80.464-45.425-34.029-65.225z"/> <path d="m381.38 427.25c26.294-6.089 47.457 19.875 42.856 42.681-9.26 45.901-80.745 31.351-71.509-14.427 2.817-13.962 14.917-25.073 28.653-28.254z"/> <path d="m377.09 184.24c29.171-10.645 53.684 17.843 48.72 42.583-9.478 47.242-83.175 32.453-73.696-14.786 2.575-12.834 12.763-23.34 24.976-27.797z"/> <path d="m4634.6 196.74c10.679 16.508 5.376 41.244-11.132 51.923-40.412 26.144-81.203-36.913-40.792-63.056 16.466-10.651 41.218-5.416 51.924 11.133z"/> <path d="m4737 378.54c18.593-3.651 42.849 3.142 58.771 13.019 31.914 19.768 38.254 52.156 46.268 85.919-48.034-2.824-77.593-17.36-96.633-60.501-4.88-11.114-12.68-27.238-8.406-38.437z"/> <path d="m4835.8 199.51 3.527 2.386c-3.812 24.887-6.519 49.164-23.936 68.676-19.982 22.386-45.805 28.427-74.656 29.724l-6.198-2.301c-3.13-16.159 12.104-46.296 20.552-58.674 18.486-27.223 50.329-34.34 80.711-39.811z"/> <path d="m255.44 372.32 12.039 0.242 1.357 4.648c-6.682 20.684-12.025 44.213-24.391 62.286-17.403 25.435-41.079 31.323-69.812 36.491-5.873 0.492-9.624 0.406-15.213-1.557 0.602-18.169 7.786-40.815 18.066-55.878 19.964-29.257 44.106-39.985 77.954-46.232z"/> <path d="m153.48 196.84 40.566 9.67c50.571 15.725 59.807 57.488 81.609 99.286-24.805-2.796-50.04-4.73-71.725-18.4-35.209-22.205-42.283-52.779-50.45-90.556z"/> <path d="m2485.1 269.29c33.761-10.242 65.289 13.84 71.175 42.946 4.704 23.26-7.022 48.909-27.689 60.57-46.525 26.251-101.56-24.343-79.363-72.894 6.752-14.77 20.386-25.923 35.877-30.622z"/> <path d="m2303.2 131.98c20.114-2.223 39.697-0.47 58.621 6.753 56.519 21.57 78.253 73.05 101.49 124.78-30.104-34.3-60.658-74.827-103.58-93.252 32.031 33.2 64.772 56.957 88.608 98.104-10.64-2.829-61.745-55.848-122.28-84.017 15.419 15.223 107.6 83.447 109.22 93.623l-13.314-5.175-107.34-62.792c36.063 42.283 104.06 69.431 118.49 87.055-42.806-5.015-73.463-28.431-112.94-40.876 36.06 26.247 66.303 37.752 108.75 51.209-48.01 2.974-100.38-0.997-138.22-33.898-38.389-33.389-49.128-72.996-52.747-122.12 7.647-8.648 52.06-16.57 65.221-19.387z"/> <path d="m2683.3 129.48c31.205 2.173 54.076 10.076 83.575 20.402-2.981 45.242-16.302 86.246-50.232 117.81-42.151 39.216-88.49 40.982-142.94 39.376 40.256-11.551 77.31-19.733 107.92-50.019-26.147 12.634-75.821 41.706-104.67 36.359 12.552-18.094 52.801-34.97 71.96-46.745 14.055-8.637 25.756-18.304 37.684-29.624-97.538 51.421-70.197 36.884-124.04 65.865 32.327-36.63 79.201-56.733 110.6-93.352-43.672 20.448-79.265 48.79-115.32 80.426 25.52-53.24 58.157-67.865 77.872-91.853-42.24 21.684-64.266 53.613-94.328 88.447 34.375-97.365 76.853-127.53 141.92-137.09z"/> <path d="m2421.8 343.8 2.611 1.902c-24.75 13.241-54.594 12.117-110.28 61.096 39.803-18.251 73.737-36.986 116.18-49.695-41.517 31.907-83.482 55.956-121.15 93.441 35.625-14.225 65.858-45.691 136.59-82.414-27.162 30.382-61.003 59.725-92.917 85.082 14.005-1.151 27.738-14.889 99.447-73.242-1.888 7.875-8.157 15.141-12.716 21.766-21.987 34.902-49.745 55.785-79.226 83.315 47.276-19.106 71.44-58.528 102.26-96.437-22.961 49.172-49.641 131.61-144.73 139.99-20.313 1.792-43.611-4.232-63.151-9.464-6.109-1.638-15.17-2.96-20.018-6.953 5.022-34.628 10.999-74.727 32.933-103.19 39.165-50.822 94.498-57.571 154.17-65.201z"/> <path d="m2475.6 391.6c-6.835 28.854-16.452 57.107-19.875 86.681-1.681 14.525-0.641 29.912-0.317 44.534 11.264-35.248 7.589-60.721 34.646-130.62 1.311 46.785-6.119 90.802 2.383 137.81 6.909-17.913-1.525-73.759 9.667-106.01l8.491 87.482c9.037-37.082-0.983-78.15 3.32-116.06 17.168 44.146 19.31 109 28.26 124.43 2.194-45.217-5.393-84.433-16.887-127.93 9.635 12.402 16.331 27.17 23.305 41.186 14.279 28.694 31.077 61.324 28.961 94.353-3.498 54.631-39.077 87.083-77.548 120.73-30.308-26.005-64.836-54.831-73.477-95.817-13.304-63.091 16.178-109.33 49.071-160.77z"/> <path d="m2572.8 345.34c42.824 5.888 80.18 4.908 119.12 28.509 53.962 32.712 65.003 80.009 79.176 137.12-44.5 17.29-92.904 25.6-135.84 5.592-54.881-25.574-79.119-80.216-98.278-134.15 28.324 31.298 52.017 90.307 96.248 101.07-53.205-49.289-48.389-42.423-85.427-109.87 34.19 27.747 60.487 62.239 98.905 85.071-10.351-13.82-24.587-25.503-36.79-37.766l-47.753-51.451c34.2 11.451 47.917 40.184 117.91 78.763-5.517-9.289-16.231-17.738-24.163-25.097-26.518-24.602-56.594-44.68-86.122-65.388 38.265 5.076 83.019 35.17 116.91 53.794-32.683-32.53-71.443-49.812-113.89-66.197z"/> <path d="m2499.3 0c40.063 20.727 66.81 54.827 76.551 89.755 19.127 68.601-15.793 115.09-48.017 172 10.459-58.905 27.52-66.579 18.742-143.74-4.969 35.533-8.744 69.694-19.839 104.04-2.867 8.873-5.083 20.021-11.302 27.123-5.275-16.192-0.976-33.456 1.229-49.883 3.434-25.556 7.519-69.235-3.686-93.071l-7.633 137.38-3.897-22.785c-7.608-44.722-2.262-90.581-8.274-135.37-7.996 55.422-5.553 104.32 1.987 159.49l-3.768 3.825c-6.828-6.173-9.261-16.648-12.192-25.15-11.697-33.959-12.541-68.255-22.133-101.96-13.49 25.757 14.35 105.64 22.842 139.59-35.176-44.649-66.808-105.07-56.915-160.5 8.402-47.096 38.663-74.784 76.305-100.74z"/> <path d="m4580.8 94.656c23.534-0.549 68.322-7.211 107.89 33.884 23.223 24.163 35.084 56.843 34.016 90.211-1.46 44.427-18.913 70.752-50.222 100.28 40.89-0.078 86.303 3.622 126.62-3.206 30.872-5.244 101.37-43.345 199.18 21.617l-1.852 2.226c-7.409 6.194-23.401 12.011-32.52 15.879-38.29 16.192-80.462 19.145-121.17 12.039-29.697-5.194-52.64-18.577-172.86-16.381 24.969 20.929 42.101 42.503 50.222 74.482 8.62 33.859 2.315 75.39-15.957 105.16-31.747 51.835-120.36 76.948-184.57 35.084-63.508-41.378-88.084-105.37-102.97-176.5 8.655 6.935 17.062 28.908 23.294 39.048 32.489 52.609 103.84 119.25 163.24 122.53 27.319 1.514 51.967-4.417 72.412-23.704 59.075-55.687 20.516-165.42-56.206-173.71-12.924-1.394 148.24-1.583-1639.9 0.046-247.58 0.158-289.76 2.197-357.96-10.023-15.191-2.721-31.28-4.581-45.908-9.592l-0.018-3.583c22.313-14.724 57.158-11.454 261.98-12.402 1881.9 0.225 1780.5 3.954 1799.9-4.189 110.86-46.563 72.249-206.75-28.423-184.22-54.959 12.299-110.34 43.622-147.42 86.1-17.702 20.306-31.843 44.665-46.197 67.408 21.589-96.897 68.665-172.26 165.45-188.48z"/> <path d="m377.34 94.696c38.325-2.322 73.01 4.182 105.66 25.132 63.586 40.801 89.516 110.24 105.4 180.64-21.807-28.781-68.168-131.02-158.7-163.31-52.744-18.818-114.5-3.228-132.02 51.034-20.422 63.234 17.599 119.14 69.527 129.47 30.065 5.98 69.783 1.254 101.05 1.336 2033.9-0.306 1904-5.957 1967.3 13.973-121.29 33.83-257.13 22.568-381.97 22.635-1737.8 0.705-1667.5-2.255-1680.4 1.46-25.036 7.174-48.302 22.333-62.489 44.583-15.234 23.886-21.788 58.04-14.856 85.623 14.837 59.042 77.233 73.143 119.76 62.061 83.806-21.844 134.3-102.13 175.62-171.38-13.432 59.319-34.397 117.02-80.17 159.61-104.77 97.48-245.21 34.991-237.74-84.266 2.707-43.23 25.168-74.396 56.505-102.42-139.4-0.782-135.47 10.587-177.4 18.041-55.819 9.923-102.72-6.693-152.39-29.507 48.973-29.898 104.08-45.695 161.34-34.514 15.223 2.974 29.674 9.916 44.943 12.028 37.189 5.136 77.823 3.081 115.48 3.494-9.973-8.445-19.964-17.631-27.554-28.331-40.647-57.303-22.236-141.84 33.852-179.51 15.39-10.336 31.308-14.236 49.267-17.89z"/> </g> <g fill="#020202"> <path d="m2500.8 1493.2c7.222-36.908 18.549-63.828 86.334-106.25 11.156 34.099 11.275 60.069 3.529 95.115-16.151 55.21-51.106 90.295-89.863 130.32-38.758-40.024-73.712-75.108-89.863-130.32-7.746-35.046-7.626-61.016 3.529-95.115 67.785 42.422 79.111 69.342 86.334 106.25z"/> <path d="m2953.4 1348.6c-11.026 21.206-27.728 39.006-44.374 55.901-56.61 57.445-115.86 85.752-189.63 114.58 44.248 8.346 86.917 16.193 132.24 12.584 50.709-4.038 96.985-19.193 142.29-41.908 104.05-52.169 216.11-156.4 340.69-137.97 30.871 4.571 63.602 21.171 81.949 47.005 22.997 32.369 18.339 78.92-18.909 101.46-31.25 18.914-63.733 6.797-77.038-17.179-9.021-16.135-6.99-40.964 11.787-49.285 6.139 6.406-3.227 28.885 7.156 42.097 7.718 9.791 18.102 9.468 29.608 10.517 9.121-1.722 20.593-5.869 27.539-12.299 8.244-7.623 14.138-21.227 14.138-32.418-0.103-34.965-45.756-71.014-105.67-54.232-119.71 33.512-226.59 155.62-380.89 179.4-85.78 13.222-175.05-9.216-260.18-19.133-30.163-3.515-61.311-3.49-91.673-4.617 5.666-9.735 11.282-19.414 15.762-29.77 0.621-1.431 3.75-10.465 4.62-11.061 4.506-3.086 77.476-0.378 153.7-26.507 78.574-26.932 141.92-77.28 206.9-127.18z"/> <path d="m2048.3 1348.6c11.026 21.206 27.728 39.006 44.374 55.901 56.61 57.445 115.86 85.752 189.63 114.58-44.248 8.346-86.917 16.193-132.24 12.584-50.709-4.038-96.985-19.193-142.29-41.908-104.05-52.169-216.11-156.4-340.69-137.97-30.871 4.571-63.602 21.171-81.949 47.005-22.997 32.369-18.339 78.92 18.909 101.46 31.25 18.914 63.733 6.797 77.037-17.179 9.021-16.135 6.99-40.964-11.787-49.285-6.139 6.406 3.227 28.885-7.156 42.097-7.718 9.791-18.102 9.468-29.608 10.517-9.121-1.722-20.592-5.869-27.539-12.299-8.244-7.623-14.138-21.227-14.138-32.418 0.103-34.965 45.756-71.014 105.67-54.232 119.71 33.512 226.59 155.62 380.89 179.4 85.78 13.222 175.05-9.216 260.18-19.133 30.163-3.515 61.311-3.49 91.673-4.617-5.666-9.735-11.282-19.414-15.762-29.77-0.621-1.431-3.75-10.465-4.62-11.061-4.506-3.086-77.476-0.378-153.7-26.507-78.573-26.932-141.92-77.28-206.9-127.18z"/> <path d="m4741.4 1648.1c3.614-21.971 9.928-42.785 21.961-61.686 12.418-19.456 35.712-40.381 59.111-44.739 9.262-1.73 13.507-1.916 21.224 3.515 17.188 65.87-56.029 86.381-91.877 103.87 14.243-0.112 29.924 0.593 43.886-2.308 15.611-3.242 29.749-10.931 44.939-15.394 24.978-7.335 57.182-7.844 81.914 0.231 27.398 8.942 50.692 25.911 77.424 36.618-53.077 25.725-96.789 52.604-158.25 33.53-16.874-5.237-32.415-14.33-49.956-17.582-8.454-1.575-22.557-3.894-29.678 1.109 10.853 12.852 40.372 16.336 64.689 43.406 16.382 18.249 19.154 33.825 17.821 57.754-1.543 2.652-3.929 4.343-6.174 6.385-20.663-4e-3 -37.852-7.23-53.954-20.143-28.451-22.796-38.449-53.73-42.694-88.53-2790.1-0.133-1661.8-0.134-4481.9 0-4.245 34.8-14.243 65.734-42.694 88.53-16.102 12.913-33.292 20.14-53.954 20.143-2.245-2.042-4.63-3.733-6.174-6.385-1.333-23.929 1.438-39.505 17.821-57.754 24.318-27.069 53.837-30.554 64.689-43.406-7.122-5.002-21.224-2.684-29.678-1.109-17.54 3.252-33.081 12.345-49.955 17.582-61.462 19.074-105.17-7.805-158.25-33.53 26.732-10.707 50.025-27.675 77.424-36.618 24.732-8.076 56.936-7.567 81.914-0.231 15.19 4.462 29.328 12.152 44.939 15.394 13.962 2.901 29.643 2.196 43.886 2.308-35.847-17.49-109.06-38.001-91.877-103.87 7.718-5.431 11.963-5.245 21.224-3.515 23.399 4.357 46.692 25.283 59.111 44.739 12.033 18.902 18.347 39.715 21.961 61.686 2688.9-1.113 1661-1.167 4481.2 0z"/> </g> <g fill="#020202"> <path d="m4841.1 3962.9c36.041-0.353 54.068 37.25 38.964 64.394-8.855 15.913-28.484 25.027-46.355 21.523-40.218-7.886-47.18-64.806-9.944-82.095 5.429-2.522 11.368-3.764 17.335-3.822z"/> <path d="m160.37 3962.9c-36.041-0.353-54.069 37.25-38.965 64.394 8.855 15.913 28.485 25.027 46.355 21.523 40.217-7.886 47.18-64.806 9.943-82.095-5.428-2.522-11.366-3.764-17.333-3.822z"/> <path d="m4790.2 3913.6c12.69 85.613-33.841 161.41-82.79 226.48 37.366-10.615 138.67-109.2 237.74-68.561 75.047 30.794 65.531 123.25 15.712 140.93-13.508 4.802-31.495 3.398-44.079-3.249-28.498-15.022-36.31-49.346-21.72-71.888 9.527-14.667 23.781-18.154 39.956-21.514-7.501-7.081-16.53-13.511-25.559-18.559-11.375-6.388-24.599-6.768-37.325-5.933-99.406 6.553-155.11 124.4-308.45 166.2-85.136 23.22-184.46 26.319-270.59 6.644-105.12-24.015-199.65-86.188-258.32-119.51 95.303 93.771 174.93 211.45 295.93 273.73-78.738-9.737-134.23-54.082-188.94-107.56-118.93-116.2-191.48-250.92-446.16-299.05 32.206 17.617 64.519 32.181 92.317 56.997 27.869 24.894 56.414 58.17 58.013 97.322 1.578 36.92-22.439 72.056-65.763 72.311-30.742 0.184-58.99-17.788-55.774-48.078 1.436-13.998 13.371-25.261 25.559-23.344-2.879 6.025-6.789 13.7-6.541 20.54 1.244 29.211 49.537 43.875 73.122 6.843 6.825-10.729 8.389-24.332 5.652-36.614-7.963-35.583-37.823-64.814-67.54-83.864-91.073-58.383-187.23-43.933-286.55-22.036 71.176 10.242 127.86 36.797 175.18 101.81-32.455-18.762-64.448-37.478-100.35-48.935-113.82-36.323-220.76-11.539-324.02 41.587 69.495-11.062 131.06-21.336 198.89 6.757 16.956 7.031 32.277 17.383 47.527 27.475-204.15-55.3-373.84 69.184-524.94 92.583-90.405 14.002-183.46 6.52-258.93-49.667-77.215-57.494-116.14-167.12-54.505-245.28 25.825-32.757 64.32-55.781 106.08-59.489 42.966-3.811 68.781 19.146 99.17 44.562-78.936-139.69-240.59-61.699-271.26 62.691-49.629 201.31 236.81 425.72 523.2 241.92-166.13 205.24-543.24 109.36-572.97-175.55-3.544-228.16 238.08-308.42 330.92-170.56 44.695 66.356 26.207 142.83-14.823 170.02-18.005 11.933-38.37 18.297-59.965 13.793-18.858-3.932-37.112-13.682-47.786-30.208-12.499-19.352-17.635-41.999-12.221-64.764 6.868-28.872 25.271-39.653 48.511-54.192-32.106 4.529-61.06 8.883-85.229 32.824-70.661 70.008-5.161 226.64 137.25 222.34 157.16-4.749 283.03-130.86 383.93-238.12-33.806 83.75-114.14 159.63-185.96 211.74 37.318-11.329 75.03-38.11 108.21-58.259 291.7-177.15 327.25-227.63 419.93-308.63-43.83 81.877-114.5 147.61-181.97 209.99 79.878-36.333 195.85-96.322 339.48-109.58 115.42-10.65 223.38 12.918 325.62 66.381 30.571 15.968 62.457 34.136 88.975 56.282-53.61-10.651-246.47-123.25-444.06-76.676 35.407 6.783 78.564-10.715 195.69 30.4 93.312 32.764 172.76 84.93 260.88 127.54 103.27 49.923 236.64 85.577 350.36 55.863 70.953-18.549 135.22-58.01 172.08-123.07 20.191-35.676 36.01-78.525 24.066-119.8-15.007-51.689-57.07-71.088-96.334-58.781 15.57 7.394 25.274 16.416 31.851 32.657 4.799 11.976 6.79 29.697 0.924 41.566-28.872 58.565-134.04 1.086-85.954-65.141 36.594-50.343 162.71-44.32 175.92 69.236 6.683 57.054-25.701 117.59-60.822 160.35-66.332 80.689-154.74 103.4-254.41 113.1 90.397 5.922 189.97-6.313 265.01-61.139 57.623-42.109 107.99-116.73 118.69-187.56 27.083-179.09-151.72-268.71-258.36-186.36-60.444 46.633-63.011 126.42-25.346 172.68 11.908 14.639 29.646 28.062 49.02 29.849 34.375 3.178 56.023-8.314 81.831-29.28l-12.584 28.342c-32.724 59.961-149.17 39.881-172.37-70.793-8.389-40.005 0.462-84.557 23.426-118.62 80.005-118.45 314.06-98.705 344.64 107.88z"/> <path d="m211.23 3913.6c-12.691 85.613 33.841 161.41 82.79 226.48-37.365-10.615-138.67-109.2-237.74-68.561-75.047 30.794-65.531 123.25-15.712 140.93 13.508 4.802 31.495 3.398 44.079-3.249 28.498-15.022 36.31-49.346 21.72-71.888-9.527-14.667-23.782-18.154-39.956-21.514 7.501-7.081 16.53-13.511 25.559-18.559 11.375-6.388 24.599-6.768 37.325-5.933 99.406 6.553 155.11 124.4 308.45 166.2 85.136 23.22 184.46 26.319 270.59 6.644 105.12-24.015 199.65-86.188 258.32-119.51-95.303 93.771-174.93 211.45-295.93 273.73 78.738-9.737 134.23-54.082 188.94-107.56 118.93-116.2 191.48-250.92 446.16-299.05-32.206 17.617-64.519 32.181-92.317 56.997-27.869 24.894-56.414 58.17-58.013 97.322-1.578 36.92 22.439 72.056 65.763 72.311 30.742 0.184 58.99-17.788 55.774-48.078-1.436-13.998-13.371-25.261-25.558-23.344 2.879 6.025 6.789 13.7 6.541 20.54-1.244 29.211-49.537 43.875-73.121 6.843-6.825-10.729-8.389-24.332-5.652-36.614 7.963-35.583 37.823-64.814 67.54-83.864 91.073-58.383 187.23-43.933 286.55-22.036-71.176 10.242-127.86 36.797-175.18 101.81 32.455-18.762 64.448-37.478 100.35-48.935 113.82-36.323 220.76-11.539 324.02 41.587-69.495-11.062-131.06-21.336-198.89 6.757-16.956 7.031-32.277 17.383-47.527 27.475 204.15-55.3 373.84 69.184 524.94 92.583 90.405 14.002 183.46 6.52 258.93-49.667 77.215-57.494 116.14-167.12 54.505-245.28-25.825-32.757-64.32-55.781-106.08-59.489-42.966-3.811-68.781 19.146-99.17 44.562 78.936-139.69 240.59-61.699 271.26 62.691 49.629 201.31-236.81 425.72-523.2 241.92 166.13 205.24 543.24 109.36 572.97-175.55 3.544-228.16-238.08-308.42-330.92-170.56-44.695 66.356-26.207 142.83 14.823 170.02 18.005 11.933 38.37 18.297 59.965 13.793 18.858-3.932 37.112-13.682 47.786-30.208 12.499-19.352 17.635-41.999 12.221-64.764-6.868-28.872-25.271-39.653-48.511-54.192 32.106 4.529 61.06 8.883 85.229 32.824 70.661 70.008 5.161 226.64-137.25 222.34-157.16-4.749-283.03-130.86-383.93-238.12 33.806 83.75 114.14 159.63 185.96 211.74-37.318-11.329-75.03-38.11-108.21-58.259-291.7-177.15-327.25-227.63-419.93-308.63 43.83 81.877 114.5 147.61 181.97 209.99-79.878-36.333-195.85-96.322-339.48-109.58-115.42-10.65-223.38 12.918-325.62 66.381-30.571 15.968-62.457 34.136-88.976 56.282 53.61-10.651 246.47-123.25 444.06-76.676-35.407 6.783-78.564-10.715-195.69 30.4-93.312 32.764-172.76 84.93-260.88 127.54-103.27 49.923-236.64 85.577-350.36 55.863-70.953-18.549-135.22-58.01-172.09-123.07-20.191-35.676-36.01-78.525-24.066-119.8 15.007-51.689 57.07-71.088 96.334-58.781-15.57 7.394-25.274 16.416-31.85 32.657-4.799 11.976-6.79 29.697-0.924 41.566 28.872 58.565 134.04 1.086 85.954-65.141-36.594-50.343-162.71-44.32-175.92 69.236-6.683 57.054 25.701 117.59 60.822 160.35 66.331 80.689 154.74 103.4 254.41 113.1-90.397 5.922-189.97-6.313-265.01-61.139-57.622-42.109-107.99-116.73-118.69-187.56-27.083-179.09 151.72-268.71 258.36-186.36 60.444 46.633 63.01 126.42 25.345 172.68-11.908 14.639-29.647 28.062-49.02 29.849-34.374 3.178-56.023-8.314-81.83-29.28l12.584 28.342c32.724 59.961 149.17 39.881 172.37-70.793 8.389-40.005-0.462-84.557-23.426-118.62-80.005-118.45-314.06-98.705-344.64 107.88z"/> </g> </svg>